<svg xmlns="http://www.w3.org/2000/svg" version="1.1" xmlns:xlink="http://www.w3.org/1999/xlink" xmlns:svgjs="http://svgjs.dev/svgjs" width="1000" height="1000" viewBox="0 0 1000 1000"><rect width="1000" height="1000" fill="#ffffff"></rect><g transform="matrix(0.7,0,0,0.7,149.57575757575756,440.51735215093197)"><svg viewBox="0 0 396 67" data-background-color="#222831" preserveAspectRatio="xMidYMid meet" height="169" width="1000" xmlns="http://www.w3.org/2000/svg" xmlns:xlink="http://www.w3.org/1999/xlink"><g id="tight-bounds" transform="matrix(1,0,0,1,0.2400000000000091,0.18839734478069659)"><svg viewBox="0 0 395.52 66.62320531043858" height="66.62320531043858" width="395.52"><g><svg viewBox="0 0 492.6870714368 82.99047308387097" height="66.62320531043858" width="395.52"><g transform="matrix(1,0,0,1,0,11.469739767741938)"><svg viewBox="0 0 395.52 60.05099354838709" height="60.05099354838709" width="395.52"><g id="textblocktransform"><svg viewBox="0 0 395.52 60.05099354838709" height="60.05099354838709" width="395.52" id="textblock"><g><svg viewBox="0 0 395.52 60.05099354838709" height="60.05099354838709" width="395.52"><g transform="matrix(1,0,0,1,0,0)"><svg width="395.52" viewBox="4.599999904632568 -34.79999923706055 232.47999572753906 35.29999923706055" height="60.05099354838709" data-palette-color="#ffffff"><path d="M4.6-34.3L9.5-34.3 9.5-4.45 25.25-4.45 25.95 0 4.6 0 4.6-34.3ZM29.45-34.3L42.35-34.3 42.35-29.85 38.35-29.85 38.35-4.45 42.35-4.45 42.35 0 29.45 0 29.45-4.45 33.45-4.45 33.45-29.85 29.45-29.85 29.45-34.3ZM64.8-34.3Q67.25-34.3 69.3-33.18 71.34-32.05 72.57-30.13 73.8-28.2 73.8-25.9L73.8-25.9Q73.8-22.85 72.3-20.8 70.8-18.75 67.8-17.9L67.8-17.9 67.8-17.65Q70.75-17.2 72.67-15 74.59-12.8 74.59-9.35L74.59-9.35Q74.59-6.6 73.27-4.48 71.95-2.35 69.75-1.18 67.55 0 65.09 0L65.09 0 49.6 0 49.6-34.3 64.8-34.3ZM63.8-29.85L54.5-29.85 54.5-19.7 63.8-19.7Q65.8-19.7 67.34-21.15 68.9-22.6 68.9-24.75L68.9-24.75Q68.9-26.85 67.4-28.35 65.9-29.85 63.8-29.85L63.8-29.85ZM64.3-15.25L54.5-15.25 54.5-4.45 64.3-4.45Q66.55-4.45 68.12-6.03 69.7-7.6 69.7-9.85L69.7-9.85Q69.7-12.1 68.12-13.68 66.55-15.25 64.3-15.25L64.3-15.25ZM96.74-34.3Q101.29-34.3 104.22-32.15 107.14-30 107.14-26.25L107.14-26.25Q107.14-22.9 105.37-20.55 103.59-18.2 100.99-17.7L100.99-17.7 100.99-17.45Q103.39-16.5 104.94-14.15 106.49-11.8 106.49-8.5L106.49-8.5Q106.49-5.75 106.79-4.35 107.09-2.95 107.59-2.4 108.09-1.85 109.04-1.55L109.04-1.55 109.04-0.15Q107.94 0.3 106.69 0.3L106.69 0.3Q104.29 0.3 102.94-1.13 101.59-2.55 101.59-6.5L101.59-6.5Q101.59-10.55 99.92-12.83 98.24-15.1 95.74-15.1L95.74-15.1 87.04-15.1 87.04 0 82.14 0 82.14-34.3 96.74-34.3ZM96.79-29.85L87.04-29.85 87.04-19.55 96.79-19.55Q98.94-19.55 100.59-21 102.24-22.45 102.24-24.6L102.24-24.6 102.24-24.8Q102.24-27 100.74-28.43 99.24-29.85 96.79-29.85L96.79-29.85ZM115.64-34.3L138.14-34.3 137.49-29.85 120.54-29.85 120.54-19.75 135.89-19.75 135.89-15.3 120.54-15.3 120.54-4.45 137.79-4.45 138.49 0 115.64 0 115.64-34.3ZM160.09-34.3Q162.99-34.3 165.34-33 167.69-31.7 169.01-29.43 170.34-27.15 170.34-24.3L170.34-24.3Q170.34-21.45 169.01-19.18 167.69-16.9 165.34-15.6 162.99-14.3 160.09-14.3L160.09-14.3 150.19-14.3 150.19 0 145.29 0 145.29-34.3 160.09-34.3ZM159.64-29.85L150.19-29.85 150.19-18.75 159.64-18.75Q161.99-18.75 163.71-20.38 165.44-22 165.44-24.3L165.44-24.3Q165.44-26.65 163.71-28.25 161.99-29.85 159.64-29.85L159.64-29.85ZM189.14-34.8Q193.39-34.8 196.59-32.95 199.79-31.1 201.56-27.63 203.34-24.15 203.34-19.4L203.34-19.4 203.34-14.9Q203.34-10.15 201.56-6.68 199.79-3.2 196.59-1.35 193.39 0.5 189.14 0.5L189.14 0.5Q184.89 0.5 181.69-1.35 178.49-3.2 176.71-6.68 174.94-10.15 174.94-14.9L174.94-14.9 174.94-19.4Q174.94-24.15 176.71-27.63 178.49-31.1 181.69-32.95 184.89-34.8 189.14-34.8L189.14-34.8ZM189.14-30.35Q184.74-30.35 182.29-27.55 179.84-24.75 179.84-19.4L179.84-19.4 179.84-14.9Q179.84-9.55 182.21-6.75 184.59-3.95 189.14-3.95L189.14-3.95Q193.54-3.95 195.99-6.73 198.44-9.5 198.44-14.9L198.44-14.9 198.44-19.4Q198.44-24.75 196.06-27.55 193.69-30.35 189.14-30.35L189.14-30.35ZM222.88-34.3Q227.18-34.3 230.38-32.43 233.58-30.55 235.33-27.08 237.08-23.6 237.08-18.9L237.08-18.9 237.08-15.4Q237.08-10.7 235.33-7.23 233.58-3.75 230.38-1.88 227.18 0 222.88 0L222.88 0 210.98 0 210.98-34.3 222.88-34.3ZM222.88-29.85L215.88-29.85 215.88-4.45 222.88-4.45Q227.33-4.45 229.76-7.23 232.18-10 232.18-15.4L232.18-15.4 232.18-18.9Q232.18-24.2 229.81-27.03 227.43-29.85 222.88-29.85L222.88-29.85Z" opacity="1" transform="matrix(1,0,0,1,0,0)" fill="#000000" class="wordmark-text-0" data-fill-palette-color="primary" id="text-0"></path></svg></g></svg></g></svg></g></svg></g><g transform="matrix(1,0,0,1,409.696598352929,0)"><svg viewBox="0 0 82.99047308387097 82.99047308387097" height="82.99047308387097" width="82.99047308387097"><g data-palette-color="#f05454"><rect width="22.68406264292473" height="82.99047308387097" fill="#000000" stroke="transparent" data-fill-palette-color="accent" x="0" fill-opacity="1"></rect><rect width="22.68406264292473" height="82.99047308387097" fill="#000000" stroke="transparent" data-fill-palette-color="accent" x="27.663491027956987" fill-opacity="0.75"></rect><rect width="22.68406264292473" height="82.99047308387097" fill="#000000" stroke="transparent" data-fill-palette-color="accent" x="55.32698205591397" fill-opacity="0.5"></rect></g></svg></g></svg></g><defs></defs></svg><rect width="395.52" height="66.62320531043858" fill="none" stroke="none" visibility="hidden"></rect></g></svg></g></svg>